<svg width="406" height="98" viewBox="0 0 406 98" fill="none" xmlns="http://www.w3.org/2000/svg">
<g clip-path="url(#clip0_156_227)">
<path d="M18.0903 45.2251V13.2802C16.2245 14.7303 14.7436 16.1084 13.6437 17.2128C9.42894 21.4447 6.01762 26.4841 3.66079 32.0805C1.30315 37.676 0 43.8286 0 50.2861C0 55.1294 0.733273 59.7998 2.09381 64.1934C2.44212 65.3194 2.94744 66.7975 3.66079 68.4925C4.86909 71.3607 7.06493 75.7759 10.9058 80.3671C13.5066 34.8334 46.5828 25.7142 46.5828 25.7142C46.5828 25.7142 79.6741 34.8118 82.2749 80.3447C86.1078 75.7598 88.2989 71.3567 89.5056 68.4925C91.8632 62.8969 93.1664 56.7443 93.1664 50.2861C93.1664 43.8278 91.8632 37.676 89.5056 32.0796C87.1479 26.4841 83.7374 21.4447 79.5227 17.212C75.308 12.9801 70.289 9.55491 64.7154 7.18848C63.3221 6.59707 61.8938 6.07128 60.4353 5.61592C57.5938 4.72841 52.7327 3.51198 46.5836 3.51358C43.7286 3.51358 40.1674 3.76807 36.1671 4.6868V27.5004C36.1671 27.5004 25.4741 33.7282 18.0903 45.2251V45.2251Z" fill="white"/>
<path d="M36.1608 4.67557V0.953461C30.823 2.05145 26.7119 3.78006 24.5703 4.78921C23.2567 5.40863 20.8943 6.61466 18.084 8.47771V13.2682C20.8999 11.0978 23.3907 9.66853 24.9218 8.86665C27.2053 7.66943 31.0749 5.83998 36.1608 4.67477V4.67557Z" fill="white"/>
<path d="M63.5883 93.8294C56.3258 96.6784 49.8626 97.0465 46.5764 97.0465C39.0691 97.0465 33.1368 95.2299 29.5621 93.8286C30.8023 59.4373 46.5764 52.6029 46.5764 52.6029C46.5764 52.6029 62.3482 59.4381 63.5883 93.8294Z" fill="white"/>
</g>
<path d="M113.008 25.4629V13.3043H114.745V25.4629H113.008ZM122.171 28.9368C121.326 28.9368 120.504 28.8152 119.705 28.572C118.917 28.3405 118.275 28.0046 117.777 27.5646L118.576 26.2793C119.004 26.6498 119.531 26.9393 120.156 27.1478C120.782 27.3678 121.436 27.4778 122.119 27.4778C123.208 27.4778 124.007 27.223 124.516 26.7135C125.026 26.204 125.28 25.4282 125.28 24.386V22.4406L125.454 20.6169L125.367 18.7757V16.2571H126.948V24.2123C126.948 25.8335 126.543 27.0262 125.732 27.7904C124.921 28.5547 123.734 28.9368 122.171 28.9368ZM121.963 25.0808C121.071 25.0808 120.272 24.8955 119.566 24.525C118.871 24.1428 118.315 23.616 117.898 22.9444C117.493 22.2727 117.29 21.4969 117.29 20.6169C117.29 19.7252 117.493 18.9494 117.898 18.2894C118.315 17.6177 118.871 17.0967 119.566 16.7261C120.272 16.3556 121.071 16.1703 121.963 16.1703C122.75 16.1703 123.468 16.3324 124.117 16.6566C124.765 16.9693 125.28 17.4556 125.662 18.1157C126.056 18.7757 126.253 19.6094 126.253 20.6169C126.253 21.6127 126.056 22.4406 125.662 23.1007C125.28 23.7607 124.765 24.2586 124.117 24.5945C123.468 24.9187 122.75 25.0808 121.963 25.0808ZM122.154 23.6218C122.768 23.6218 123.312 23.4944 123.787 23.2396C124.261 22.9849 124.632 22.6317 124.898 22.1801C125.176 21.7285 125.315 21.2074 125.315 20.6169C125.315 20.0263 125.176 19.5052 124.898 19.0536C124.632 18.602 124.261 18.2546 123.787 18.0114C123.312 17.7567 122.768 17.6293 122.154 17.6293C121.54 17.6293 120.99 17.7567 120.504 18.0114C120.029 18.2546 119.653 18.602 119.375 19.0536C119.108 19.5052 118.975 20.0263 118.975 20.6169C118.975 21.2074 119.108 21.7285 119.375 22.1801C119.653 22.6317 120.029 22.9849 120.504 23.2396C120.99 23.4944 121.54 23.6218 122.154 23.6218ZM130.134 25.4629V16.2571H131.732V18.7583L131.576 18.133C131.83 17.4962 132.259 17.0098 132.861 16.674C133.463 16.3382 134.204 16.1703 135.084 16.1703V17.7856C135.015 17.7741 134.945 17.7683 134.876 17.7683C134.818 17.7683 134.76 17.7683 134.702 17.7683C133.81 17.7683 133.104 18.0346 132.583 18.5673C132.062 19.0999 131.801 19.87 131.801 20.8774V25.4629H130.134ZM141.154 25.5671C140.169 25.5671 139.301 25.3645 138.548 24.9592C137.807 24.5539 137.228 23.9981 136.811 23.2917C136.406 22.5854 136.203 21.7748 136.203 20.86C136.203 19.9452 136.4 19.1347 136.794 18.4283C137.199 17.722 137.749 17.1719 138.444 16.7782C139.15 16.3729 139.944 16.1703 140.824 16.1703C141.715 16.1703 142.503 16.3671 143.186 16.7608C143.869 17.1546 144.402 17.7104 144.784 18.4283C145.178 19.1347 145.374 19.9626 145.374 20.9121C145.374 20.9816 145.369 21.0627 145.357 21.1553C145.357 21.2479 145.351 21.3348 145.34 21.4159H137.506V20.2174H144.471L143.794 20.6342C143.805 20.0437 143.684 19.5168 143.429 19.0536C143.174 18.5904 142.821 18.2315 142.37 17.9767C141.929 17.7104 141.414 17.5772 140.824 17.5772C140.245 17.5772 139.729 17.7104 139.278 17.9767C138.826 18.2315 138.473 18.5962 138.218 19.071C137.963 19.5342 137.836 20.0668 137.836 20.669V20.9469C137.836 21.5606 137.975 22.1106 138.253 22.597C138.542 23.0717 138.942 23.4423 139.451 23.7086C139.961 23.9749 140.546 24.1081 141.206 24.1081C141.75 24.1081 142.242 24.0155 142.682 23.8302C143.134 23.6449 143.527 23.367 143.863 22.9965L144.784 24.0734C144.367 24.5597 143.846 24.9303 143.221 25.185C142.607 25.4398 141.918 25.5671 141.154 25.5671ZM146.509 28.9368C146.127 28.9368 145.762 28.8905 145.414 28.7978C145.055 28.7052 144.754 28.5663 144.511 28.381L145.05 27.0956C145.397 27.3851 145.849 27.5299 146.405 27.5299C146.845 27.5299 147.18 27.3909 147.412 27.113C147.655 26.8467 147.777 26.4472 147.777 25.9145V16.2571H149.444V25.8798C149.444 26.8177 149.189 27.5588 148.68 28.1031C148.182 28.6589 147.458 28.9368 146.509 28.9368ZM148.61 14.4855C148.286 14.4855 148.014 14.3812 147.794 14.1728C147.586 13.9644 147.481 13.7096 147.481 13.4086C147.481 13.0959 147.586 12.8354 147.794 12.6269C148.014 12.4185 148.286 12.3143 148.61 12.3143C148.935 12.3143 149.201 12.4185 149.409 12.6269C149.629 12.8238 149.739 13.0727 149.739 13.3738C149.739 13.6865 149.635 13.9528 149.427 14.1728C149.218 14.3812 148.946 14.4855 148.61 14.4855ZM158.34 25.4629V23.5175L158.254 23.1528V19.8352C158.254 19.1289 158.045 18.5846 157.628 18.2025C157.223 17.8088 156.609 17.612 155.787 17.612C155.243 17.612 154.71 17.7046 154.189 17.8899C153.668 18.0636 153.228 18.3009 152.869 18.602L152.174 17.3514C152.649 16.9693 153.216 16.6798 153.876 16.4829C154.548 16.2745 155.249 16.1703 155.978 16.1703C157.24 16.1703 158.213 16.4772 158.896 17.0909C159.579 17.7046 159.921 18.6425 159.921 19.9047V25.4629H158.34ZM155.318 25.5671C154.635 25.5671 154.033 25.4513 153.512 25.2197C153.002 24.9882 152.609 24.6697 152.331 24.2644C152.053 23.8476 151.914 23.3786 151.914 22.8575C151.914 22.3596 152.03 21.908 152.261 21.5027C152.504 21.0974 152.892 20.7732 153.425 20.53C153.969 20.2868 154.699 20.1653 155.613 20.1653H158.531V21.3637H155.683C154.849 21.3637 154.288 21.5027 153.998 21.7806C153.709 22.0585 153.564 22.3943 153.564 22.788C153.564 23.2396 153.743 23.6044 154.102 23.8823C154.461 24.1486 154.959 24.2818 155.596 24.2818C156.221 24.2818 156.766 24.1428 157.229 23.8649C157.704 23.587 158.045 23.1817 158.254 22.6491L158.584 23.7955C158.364 24.3397 157.976 24.7739 157.42 25.0982C156.864 25.4108 156.163 25.5671 155.318 25.5671ZM167.915 25.4629V13.3043H172.656C173.722 13.3043 174.631 13.4722 175.383 13.8081C176.136 14.1439 176.715 14.6302 177.12 15.2671C177.526 15.904 177.728 16.6624 177.728 17.5425C177.728 18.4225 177.526 19.181 177.12 19.8179C176.715 20.4432 176.136 20.9295 175.383 21.2769C174.631 21.6127 173.722 21.7806 172.656 21.7806H168.87L169.652 20.9642V25.4629H167.915ZM169.652 21.1379L168.87 20.2695H172.604C173.716 20.2695 174.556 20.0321 175.123 19.5573C175.702 19.0826 175.991 18.4109 175.991 17.5425C175.991 16.674 175.702 16.0024 175.123 15.5276C174.556 15.0529 173.716 14.8155 172.604 14.8155H168.87L169.652 13.947V21.1379ZM179.867 25.4629V16.2571H181.465V18.7583L181.309 18.133C181.564 17.4962 181.992 17.0098 182.594 16.674C183.196 16.3382 183.938 16.1703 184.818 16.1703V17.7856C184.748 17.7741 184.679 17.7683 184.609 17.7683C184.551 17.7683 184.493 17.7683 184.435 17.7683C183.544 17.7683 182.838 18.0346 182.316 18.5673C181.795 19.0999 181.535 19.87 181.535 20.8774V25.4629H179.867ZM190.887 25.5671C189.903 25.5671 189.034 25.3645 188.282 24.9592C187.541 24.5539 186.962 23.9981 186.545 23.2917C186.14 22.5854 185.937 21.7748 185.937 20.86C185.937 19.9452 186.134 19.1347 186.527 18.4283C186.933 17.722 187.483 17.1719 188.178 16.7782C188.884 16.3729 189.677 16.1703 190.557 16.1703C191.449 16.1703 192.236 16.3671 192.919 16.7608C193.603 17.1546 194.135 17.7104 194.517 18.4283C194.911 19.1347 195.108 19.9626 195.108 20.9121C195.108 20.9816 195.102 21.0627 195.091 21.1553C195.091 21.2479 195.085 21.3348 195.073 21.4159H187.24V20.2174H194.205L193.527 20.6342C193.539 20.0437 193.417 19.5168 193.163 19.0536C192.908 18.5904 192.555 18.2315 192.103 17.9767C191.663 17.7104 191.148 17.5772 190.557 17.5772C189.978 17.5772 189.463 17.7104 189.011 17.9767C188.56 18.2315 188.206 18.5962 187.952 19.071C187.697 19.5342 187.57 20.0668 187.57 20.669V20.9469C187.57 21.5606 187.709 22.1106 187.986 22.597C188.276 23.0717 188.675 23.4423 189.185 23.7086C189.694 23.9749 190.279 24.1081 190.939 24.1081C191.483 24.1081 191.976 24.0155 192.416 23.8302C192.867 23.6449 193.261 23.367 193.597 22.9965L194.517 24.0734C194.1 24.5597 193.579 24.9303 192.954 25.185C192.34 25.4398 191.651 25.5671 190.887 25.5671ZM200.063 25.5671C199.299 25.5671 198.57 25.4629 197.875 25.2545C197.192 25.0461 196.653 24.7913 196.26 24.4902L196.954 23.1702C197.348 23.4365 197.834 23.6623 198.413 23.8476C198.992 24.0328 199.583 24.1255 200.185 24.1255C200.961 24.1255 201.517 24.0155 201.853 23.7955C202.2 23.5754 202.374 23.2686 202.374 22.8749C202.374 22.5854 202.269 22.3596 202.061 22.1975C201.853 22.0354 201.575 21.9138 201.227 21.8327C200.891 21.7517 200.515 21.6822 200.098 21.6243C199.681 21.5548 199.264 21.4737 198.848 21.3811C198.431 21.2769 198.049 21.1379 197.701 20.9642C197.354 20.779 197.076 20.53 196.868 20.2174C196.659 19.8931 196.555 19.4647 196.555 18.932C196.555 18.3762 196.711 17.8899 197.024 17.473C197.336 17.0561 197.777 16.7377 198.344 16.5177C198.923 16.2861 199.606 16.1703 200.393 16.1703C200.996 16.1703 201.604 16.2456 202.217 16.3961C202.843 16.535 203.352 16.7377 203.746 17.004L203.034 18.3241C202.617 18.0462 202.183 17.8551 201.731 17.7509C201.279 17.6467 200.828 17.5946 200.376 17.5946C199.647 17.5946 199.102 17.7162 198.743 17.9593C198.384 18.1909 198.205 18.492 198.205 18.8625C198.205 19.1752 198.309 19.4184 198.518 19.5921C198.738 19.7542 199.016 19.8816 199.351 19.9742C199.699 20.0668 200.081 20.1479 200.498 20.2174C200.915 20.2753 201.331 20.3563 201.748 20.4605C202.165 20.5532 202.542 20.6863 202.877 20.86C203.225 21.0337 203.503 21.2769 203.711 21.5895C203.931 21.9022 204.041 22.3191 204.041 22.8401C204.041 23.396 203.879 23.8765 203.555 24.2818C203.23 24.6871 202.773 25.0055 202.183 25.2371C201.592 25.4571 200.886 25.5671 200.063 25.5671ZM211.006 25.5671C210.218 25.5671 209.506 25.3934 208.869 25.0461C208.244 24.6871 207.746 24.1602 207.376 23.4654C207.017 22.7707 206.837 21.9022 206.837 20.86C206.837 19.8179 207.022 18.9494 207.393 18.2546C207.775 17.5598 208.279 17.0388 208.904 16.6914C209.541 16.344 210.242 16.1703 211.006 16.1703C211.909 16.1703 212.708 16.3671 213.403 16.7608C214.098 17.1546 214.648 17.7046 215.053 18.4109C215.458 19.1057 215.661 19.9221 215.661 20.86C215.661 21.798 215.458 22.6201 215.053 23.3265C214.648 24.0328 214.098 24.5829 213.403 24.9766C212.708 25.3703 211.909 25.5671 211.006 25.5671ZM206.125 25.4629V12.5748H207.792V18.7062L207.619 20.8427L207.723 22.9791V25.4629H206.125ZM210.867 24.1081C211.457 24.1081 211.984 23.9749 212.447 23.7086C212.922 23.4423 213.293 23.0659 213.559 22.5796C213.837 22.0817 213.976 21.5085 213.976 20.86C213.976 20.2 213.837 19.6326 213.559 19.1578C213.293 18.6715 212.922 18.2951 212.447 18.0288C211.984 17.7625 211.457 17.6293 210.867 17.6293C210.288 17.6293 209.761 17.7625 209.286 18.0288C208.823 18.2951 208.452 18.6715 208.175 19.1578C207.908 19.6326 207.775 20.2 207.775 20.86C207.775 21.5085 207.908 22.0817 208.175 22.5796C208.452 23.0659 208.823 23.4423 209.286 23.7086C209.761 23.9749 210.288 24.1081 210.867 24.1081ZM217.965 25.4629V16.2571H219.632V25.4629H217.965ZM218.798 14.4855C218.474 14.4855 218.202 14.3812 217.982 14.1728C217.774 13.9644 217.669 13.7096 217.669 13.4086C217.669 13.0959 217.774 12.8354 217.982 12.6269C218.202 12.4185 218.474 12.3143 218.798 12.3143C219.123 12.3143 219.389 12.4185 219.597 12.6269C219.817 12.8238 219.927 13.0727 219.927 13.3738C219.927 13.6865 219.823 13.9528 219.615 14.1728C219.406 14.3812 219.134 14.4855 218.798 14.4855ZM225.977 25.5671C225.051 25.5671 224.333 25.3182 223.823 24.8203C223.314 24.3223 223.059 23.6102 223.059 22.6838V14.2423H224.727V22.6143C224.727 23.1123 224.848 23.4944 225.091 23.7607C225.346 24.0271 225.705 24.1602 226.168 24.1602C226.689 24.1602 227.124 24.0155 227.471 23.726L227.992 24.9245C227.737 25.1445 227.43 25.3066 227.071 25.4108C226.724 25.515 226.359 25.5671 225.977 25.5671ZM221.496 17.6293V16.2571H227.367V17.6293H221.496ZM233.802 25.5671C232.818 25.5671 231.949 25.3645 231.196 24.9592C230.455 24.5539 229.876 23.9981 229.459 23.2917C229.054 22.5854 228.851 21.7748 228.851 20.86C228.851 19.9452 229.048 19.1347 229.442 18.4283C229.847 17.722 230.397 17.1719 231.092 16.7782C231.799 16.3729 232.592 16.1703 233.472 16.1703C234.363 16.1703 235.151 16.3671 235.834 16.7608C236.517 17.1546 237.05 17.7104 237.432 18.4283C237.826 19.1347 238.023 19.9626 238.023 20.9121C238.023 20.9816 238.017 21.0627 238.005 21.1553C238.005 21.2479 237.999 21.3348 237.988 21.4159H230.154V20.2174H237.119L236.442 20.6342C236.454 20.0437 236.332 19.5168 236.077 19.0536C235.822 18.5904 235.469 18.2315 235.018 17.9767C234.578 17.7104 234.062 17.5772 233.472 17.5772C232.893 17.5772 232.377 17.7104 231.926 17.9767C231.474 18.2315 231.121 18.5962 230.866 19.071C230.612 19.5342 230.484 20.0668 230.484 20.669V20.9469C230.484 21.5606 230.623 22.1106 230.901 22.597C231.191 23.0717 231.59 23.4423 232.1 23.7086C232.609 23.9749 233.194 24.1081 233.854 24.1081C234.398 24.1081 234.89 24.0155 235.33 23.8302C235.782 23.6449 236.176 23.367 236.511 22.9965L237.432 24.0734C237.015 24.5597 236.494 24.9303 235.869 25.185C235.255 25.4398 234.566 25.5671 233.802 25.5671ZM240.338 25.4629V16.2571H241.936V18.7583L241.78 18.133C242.034 17.4962 242.463 17.0098 243.065 16.674C243.667 16.3382 244.408 16.1703 245.288 16.1703V17.7856C245.219 17.7741 245.149 17.7683 245.08 17.7683C245.022 17.7683 244.964 17.7683 244.906 17.7683C244.014 17.7683 243.308 18.0346 242.787 18.5673C242.266 19.0999 242.005 19.87 242.005 20.8774V25.4629H240.338ZM247.343 25.4629V16.2571H249.011V25.4629H247.343ZM248.177 14.4855C247.853 14.4855 247.581 14.3812 247.361 14.1728C247.152 13.9644 247.048 13.7096 247.048 13.4086C247.048 13.0959 247.152 12.8354 247.361 12.6269C247.581 12.4185 247.853 12.3143 248.177 12.3143C248.501 12.3143 248.768 12.4185 248.976 12.6269C249.196 12.8238 249.306 13.0727 249.306 13.3738C249.306 13.6865 249.202 13.9528 248.993 14.1728C248.785 14.3812 248.513 14.4855 248.177 14.4855ZM257.909 25.4629V23.5175L257.822 23.1528V19.8352C257.822 19.1289 257.614 18.5846 257.197 18.2025C256.792 17.8088 256.178 17.612 255.356 17.612C254.812 17.612 254.279 17.7046 253.758 17.8899C253.237 18.0636 252.797 18.3009 252.438 18.602L251.743 17.3514C252.218 16.9693 252.785 16.6798 253.445 16.4829C254.117 16.2745 254.817 16.1703 255.547 16.1703C256.809 16.1703 257.782 16.4772 258.465 17.0909C259.148 17.7046 259.49 18.6425 259.49 19.9047V25.4629H257.909ZM254.887 25.5671C254.204 25.5671 253.602 25.4513 253.08 25.2197C252.571 24.9882 252.177 24.6697 251.899 24.2644C251.621 23.8476 251.482 23.3786 251.482 22.8575C251.482 22.3596 251.598 21.908 251.83 21.5027C252.073 21.0974 252.461 20.7732 252.994 20.53C253.538 20.2868 254.267 20.1653 255.182 20.1653H258.1V21.3637H255.252C254.418 21.3637 253.856 21.5027 253.567 21.7806C253.277 22.0585 253.133 22.3943 253.133 22.788C253.133 23.2396 253.312 23.6044 253.671 23.8823C254.03 24.1486 254.528 24.2818 255.165 24.2818C255.79 24.2818 256.334 24.1428 256.798 23.8649C257.272 23.587 257.614 23.1817 257.822 22.6491L258.152 23.7955C257.932 24.3397 257.544 24.7739 256.989 25.0982C256.433 25.4108 255.732 25.5671 254.887 25.5671ZM267.491 16.1703C268.244 16.1703 268.904 16.315 269.471 16.6045C270.05 16.894 270.502 17.334 270.826 17.9246C271.15 18.5152 271.312 19.262 271.312 20.1653V25.4629H269.645V20.3563C269.645 19.4647 269.425 18.7931 268.985 18.3415C268.556 17.8899 267.948 17.6641 267.161 17.6641C266.571 17.6641 266.055 17.7799 265.615 18.0114C265.175 18.243 264.834 18.5846 264.59 19.0362C264.359 19.4878 264.243 20.0495 264.243 20.7211V25.4629H262.576V16.2571H264.174V18.741L263.913 18.0809C264.214 17.4788 264.677 17.0098 265.303 16.674C265.928 16.3382 266.657 16.1703 267.491 16.1703ZM280.113 25.4629V23.5175L280.026 23.1528V19.8352C280.026 19.1289 279.818 18.5846 279.401 18.2025C278.995 17.8088 278.382 17.612 277.56 17.612C277.015 17.612 276.483 17.7046 275.962 17.8899C275.44 18.0636 275 18.3009 274.641 18.602L273.947 17.3514C274.421 16.9693 274.989 16.6798 275.649 16.4829C276.32 16.2745 277.021 16.1703 277.751 16.1703C279.013 16.1703 279.985 16.4772 280.669 17.0909C281.352 17.7046 281.693 18.6425 281.693 19.9047V25.4629H280.113ZM277.091 25.5671C276.407 25.5671 275.805 25.4513 275.284 25.2197C274.775 24.9882 274.381 24.6697 274.103 24.2644C273.825 23.8476 273.686 23.3786 273.686 22.8575C273.686 22.3596 273.802 21.908 274.034 21.5027C274.277 21.0974 274.665 20.7732 275.197 20.53C275.742 20.2868 276.471 20.1653 277.386 20.1653H280.304V21.3637H277.455C276.622 21.3637 276.06 21.5027 275.77 21.7806C275.481 22.0585 275.336 22.3943 275.336 22.788C275.336 23.2396 275.516 23.6044 275.875 23.8823C276.234 24.1486 276.732 24.2818 277.368 24.2818C277.994 24.2818 278.538 24.1428 279.001 23.8649C279.476 23.587 279.818 23.1817 280.026 22.6491L280.356 23.7955C280.136 24.3397 279.748 24.7739 279.192 25.0982C278.636 25.4108 277.936 25.5671 277.091 25.5671Z" fill="white"/>
<path d="M123.508 60.7905H143.7V67.1549H123.508V60.7905ZM124.144 82.6608H116.622V42.1602H146.188V48.4667H124.144V82.6608ZM152.768 82.6608V51.7646H160V82.6608H152.768ZM156.413 46.6731C155.063 46.6731 153.944 46.2488 153.057 45.4002C152.208 44.5516 151.784 43.5295 151.784 42.3337C151.784 41.0994 152.208 40.0773 153.057 39.2673C153.944 38.4187 155.063 37.9944 156.413 37.9944C157.763 37.9944 158.862 38.3994 159.71 39.2094C160.598 39.9809 161.041 40.9644 161.041 42.1602C161.041 43.433 160.617 44.5131 159.768 45.4002C158.92 46.2488 157.801 46.6731 156.413 46.6731ZM169.492 82.6608V39.7301H176.724V82.6608H169.492ZM205.252 82.6608V76.4122L204.847 75.0814V64.1462C204.847 62.0248 204.211 60.3855 202.938 59.2283C201.665 58.0326 199.736 57.4347 197.152 57.4347C195.416 57.4347 193.7 57.7047 192.003 58.2447C190.344 58.7847 188.936 59.5369 187.779 60.5012L184.944 55.2361C186.602 53.9632 188.57 53.0182 190.845 52.4011C193.16 51.7453 195.551 51.4175 198.02 51.4175C202.494 51.4175 205.946 52.4975 208.376 54.6575C210.845 56.779 212.079 60.0769 212.079 64.5512V82.6608H205.252ZM195.532 83.0658C193.218 83.0658 191.193 82.6801 189.457 81.9087C187.721 81.0987 186.371 79.9994 185.407 78.6108C184.481 77.1836 184.018 75.5829 184.018 73.8085C184.018 72.0728 184.423 70.5106 185.233 69.122C186.082 67.7334 187.451 66.6341 189.341 65.8241C191.231 65.0141 193.738 64.6091 196.863 64.6091H205.831V69.4113H197.383C194.915 69.4113 193.256 69.8163 192.408 70.6263C191.559 71.3978 191.135 72.3621 191.135 73.5193C191.135 74.8307 191.655 75.8721 192.697 76.6436C193.738 77.415 195.185 77.8007 197.036 77.8007C198.811 77.8007 200.392 77.3957 201.781 76.5857C203.208 75.7757 204.23 74.58 204.847 72.9985L206.062 77.3379C205.368 79.1508 204.114 80.5587 202.301 81.5615C200.527 82.5644 198.27 83.0658 195.532 83.0658ZM234.493 83.0658C231.523 83.0658 228.843 82.4101 226.451 81.0987C224.098 79.7486 222.247 77.8972 220.897 75.5443C219.547 73.1914 218.872 70.4142 218.872 67.2127C218.872 64.0112 219.547 61.2341 220.897 58.8812C222.247 56.5283 224.098 54.6961 226.451 53.3846C228.843 52.0732 231.523 51.4175 234.493 51.4175C237.078 51.4175 239.392 51.996 241.436 53.1532C243.481 54.2718 245.101 55.9883 246.296 58.3026C247.492 60.6169 248.09 63.5869 248.09 67.2127C248.09 70.7999 247.511 73.77 246.354 76.1229C245.197 78.4372 243.596 80.1729 241.552 81.3301C239.508 82.4873 237.155 83.0658 234.493 83.0658ZM235.361 76.875C237.097 76.875 238.64 76.4893 239.99 75.7179C241.379 74.9464 242.478 73.8278 243.288 72.3621C244.136 70.8964 244.561 69.1799 244.561 67.2127C244.561 65.207 244.136 63.4905 243.288 62.0634C242.478 60.5976 241.379 59.479 239.99 58.7076C238.64 57.9361 237.097 57.5504 235.361 57.5504C233.626 57.5504 232.063 57.9361 230.675 58.7076C229.325 59.479 228.225 60.5976 227.377 62.0634C226.567 63.4905 226.162 65.207 226.162 67.2127C226.162 69.1799 226.567 70.8964 227.377 72.3621C228.225 73.8278 229.325 74.9464 230.675 75.7179C232.063 76.4893 233.626 76.875 235.361 76.875ZM244.734 82.6608V75.3707L245.024 67.1549L244.445 58.939V39.7301H251.619V82.6608H244.734ZM275.661 83.0658C272.228 83.0658 269.219 82.3908 266.635 81.0408C264.089 79.6522 262.103 77.7622 260.676 75.3707C259.287 72.9792 258.593 70.2599 258.593 67.2127C258.593 64.127 259.268 61.4076 260.618 59.0547C262.006 56.6633 263.896 54.7925 266.288 53.4425C268.718 52.0925 271.476 51.4175 274.561 51.4175C277.57 51.4175 280.251 52.0732 282.604 53.3846C284.957 54.6961 286.808 56.5475 288.158 58.939C289.508 61.3305 290.183 64.1462 290.183 67.3863C290.183 67.6949 290.164 68.042 290.125 68.4277C290.125 68.8135 290.106 69.1799 290.067 69.527H264.321V64.7248H286.249L283.414 66.2291C283.452 64.4548 283.086 62.8927 282.314 61.5426C281.543 60.1926 280.482 59.1319 279.132 58.3604C277.821 57.589 276.297 57.2033 274.561 57.2033C272.787 57.2033 271.225 57.589 269.875 58.3604C268.564 59.1319 267.522 60.2119 266.751 61.6005C266.018 62.9505 265.651 64.5512 265.651 66.4027V67.5599C265.651 69.4113 266.076 71.0506 266.924 72.4778C267.773 73.905 268.969 75.0043 270.511 75.7757C272.054 76.5472 273.829 76.9329 275.834 76.9329C277.57 76.9329 279.132 76.6629 280.521 76.1229C281.909 75.5829 283.144 74.7343 284.224 73.5771L288.1 78.0322C286.712 79.6522 284.957 80.9058 282.835 81.793C280.752 82.6415 278.361 83.0658 275.661 83.0658ZM269.528 47.541L277.339 39.6144H285.844L275.777 47.541H269.528ZM297.13 82.6608V39.7301H304.362V82.6608H297.13ZM316.364 82.6608V50.0289C316.364 46.7888 317.309 44.2045 319.199 42.2759C321.128 40.3087 323.866 39.3251 327.415 39.3251C328.688 39.3251 329.883 39.4601 331.002 39.7301C332.159 40.0001 333.124 40.4244 333.895 41.003L331.928 46.4417C331.388 46.0174 330.771 45.7088 330.076 45.5159C329.382 45.2845 328.668 45.1688 327.936 45.1688C326.431 45.1688 325.293 45.5931 324.522 46.4417C323.75 47.2517 323.365 48.486 323.365 50.1446V53.6161L323.596 56.8561V82.6608H316.364ZM311.272 57.7819V51.996H331.87V57.7819H311.272ZM336.961 82.6608V51.7646H344.194V82.6608H336.961ZM340.606 46.6731C339.256 46.6731 338.138 46.2488 337.251 45.4002C336.402 44.5516 335.978 43.5295 335.978 42.3337C335.978 41.0994 336.402 40.0773 337.251 39.2673C338.138 38.4187 339.256 37.9944 340.606 37.9944C341.957 37.9944 343.056 38.3994 343.904 39.2094C344.792 39.9809 345.235 40.9644 345.235 42.1602C345.235 43.433 344.811 44.5131 343.962 45.4002C343.114 46.2488 341.995 46.6731 340.606 46.6731ZM372.724 82.6608V76.4122L372.319 75.0814V64.1462C372.319 62.0248 371.683 60.3855 370.41 59.2283C369.137 58.0326 367.208 57.4347 364.624 57.4347C362.888 57.4347 361.172 57.7047 359.475 58.2447C357.816 58.7847 356.408 59.5369 355.251 60.5012L352.416 55.2361C354.074 53.9632 356.042 53.0182 358.317 52.4011C360.632 51.7453 363.023 51.4175 365.492 51.4175C369.966 51.4175 373.418 52.4975 375.848 54.6575C378.317 56.779 379.551 60.0769 379.551 64.5512V82.6608H372.724ZM363.004 83.0658C360.69 83.0658 358.665 82.6801 356.929 81.9087C355.193 81.0987 353.843 79.9994 352.879 78.6108C351.953 77.1836 351.49 75.5829 351.49 73.8085C351.49 72.0728 351.895 70.5106 352.705 69.122C353.554 67.7334 354.923 66.6341 356.813 65.8241C358.703 65.0141 361.21 64.6091 364.335 64.6091H373.303V69.4113H364.855C362.387 69.4113 360.728 69.8163 359.88 70.6263C359.031 71.3978 358.607 72.3621 358.607 73.5193C358.607 74.8307 359.127 75.8721 360.169 76.6436C361.21 77.415 362.657 77.8007 364.508 77.8007C366.283 77.8007 367.864 77.3957 369.253 76.5857C370.68 75.7757 371.702 74.58 372.319 72.9985L373.534 77.3379C372.84 79.1508 371.586 80.5587 369.773 81.5615C367.999 82.5644 365.743 83.0658 363.004 83.0658Z" fill="white"/>
<defs>
<clipPath id="clip0_156_227">
<rect width="93.1664" height="96.0931" fill="white" transform="translate(0 0.953491)"/>
</clipPath>
</defs>
</svg>
